<?xml version="1.0" encoding="UTF-8"?>
<!-- Created with Inkscape (http://www.inkscape.org/) -->
<svg width="56mm" height="56mm" version="1.1" viewBox="0 0 56 56" xmlns="http://www.w3.org/2000/svg" xmlns:xlink="http://www.w3.org/1999/xlink">
 <defs>
  <linearGradient id="linearGradient3" x1="18.796" x2="37.027" y1="28.548" y2="28.548" gradientTransform="rotate(25 27.93 27.996)" gradientUnits="userSpaceOnUse">
   <stop stop-color="#d2d2d2" offset="0"/>
   <stop stop-color="#fff" offset=".20101"/>
   <stop stop-color="#fff" offset=".80997"/>
   <stop stop-color="#d2d2d2" offset="1"/>
  </linearGradient>
 </defs>
 <g stroke-width=".52917">
  <path d="m26.407 9.65 16.523 7.7048c-5.6719 9.934-10.331 19.925-13.976 29.972l-16.523-7.7048c5.6834-9.5128 10.342-19.503 13.976-29.972z" fill="url(#linearGradient3)" stroke="#f0f0f0"/>
  <g fill="#6c6c6c" stroke="#303030">
   <path d="m24.496 8.7589 11.07-1.644 3.2043 1.5493 6.26 9.592-4.0648 3.032-0.20957-3.3878-4.1963-3.5161-3.4504 2.6698-0.28722-4.4127-5.5813-0.80934-2.6991 1.5388z"/>
   <path d="m35.336 5.4129 3.9418-1.8462 1.2782 5.0601-2.0102 1.0243-3.2043-1.5493c-1.3234-2.5626-0.0055-2.6888-0.0055-2.6888z"/>
   <path d="m15.148 48.353 1.2201 3.9905 4.5759-2.0119-0.56109-2.0834-3.245-1.462c-2.7606 0.51949-1.9898 1.5668-1.9898 1.5668z"/>
   <path d="m10.903 37.555 5.9049 9.4328 3.2462 1.4596 11.324-1.2681-0.32527-4.9874-2.7065 1.9668-5.3797-0.97826-0.20321-4.2939-3.5344 2.551-4.2204-3.7279-0.57608-3.0139z"/>
  </g>
 </g>
</svg>
